<?xml version="1.0" encoding="UTF-8"?>
<svg id="OBJECTS" xmlns="http://www.w3.org/2000/svg" xmlns:xlink="http://www.w3.org/1999/xlink" viewBox="0 0 500 500">
  <defs>
    <style>
      .cls-1 {
        opacity: .35;
      }

      .cls-1, .cls-2 {
        fill: #ffffae;
      }

      .cls-3 {
        fill: url(#linear-gradient-2);
      }

      .cls-4 {
        fill: #0b0b24;
      }

      .cls-5 {
        fill: #fffabb;
      }

      .cls-6 {
        fill: url(#linear-gradient-17);
      }

      .cls-2 {
        opacity: .46;
      }

      .cls-7 {
        fill: url(#linear-gradient-15);
      }

      .cls-8 {
        fill: url(#linear-gradient-18);
      }

      .cls-9 {
        fill: #00004c;
        opacity: .25;
      }

      .cls-10 {
        fill: url(#linear-gradient-14);
      }

      .cls-11 {
        fill: url(#linear-gradient-20);
      }

      .cls-12 {
        fill: url(#linear-gradient-6);
      }

      .cls-13 {
        letter-spacing: .12em;
      }

      .cls-14 {
        letter-spacing: .11em;
      }

      .cls-15 {
        fill: url(#linear-gradient-11);
      }

      .cls-16 {
        fill: url(#linear-gradient-10);
      }

      .cls-17 {
        letter-spacing: 0em;
      }

      .cls-18 {
        fill: url(#linear-gradient-16);
      }

      .cls-19 {
        letter-spacing: .13em;
      }

      .cls-20 {
        letter-spacing: .12em;
      }

      .cls-21 {
        fill: #ffb0f6;
        opacity: .22;
      }

      .cls-22 {
        fill: url(#linear-gradient-5);
      }

      .cls-23 {
        letter-spacing: -.02em;
      }

      .cls-24 {
        fill: url(#linear-gradient-7);
      }

      .cls-25 {
        letter-spacing: .14em;
      }

      .cls-26 {
        fill: #b0ffe2;
        opacity: .6;
      }

      .cls-27 {
        fill: url(#linear-gradient-9);
      }

      .cls-28 {
        fill: url(#linear-gradient-3);
      }

      .cls-29 {
        fill: url(#linear-gradient);
      }

      .cls-30 {
        fill: #a652ff;
        font-size: 10.9px;
      }

      .cls-30, .cls-31 {
        font-family: Montserrat-BlackItalic, Montserrat;
        font-style: italic;
        font-weight: 800;
      }

      .cls-32 {
        fill: url(#linear-gradient-19);
      }

      .cls-33 {
        fill: url(#linear-gradient-4);
      }

      .cls-34 {
        fill: url(#linear-gradient-8);
      }

      .cls-31 {
        fill: #fff;
        font-size: 49.26px;
      }

      .cls-35 {
        fill: url(#linear-gradient-12);
      }

      .cls-36 {
        fill: url(#linear-gradient-13);
      }
    </style>
    <linearGradient id="linear-gradient" x1="224.42" y1="204.75" x2="375.42" y2="204.75" gradientUnits="userSpaceOnUse">
      <stop offset="0" stop-color="#e14cca"/>
      <stop offset=".07" stop-color="#d144d1"/>
      <stop offset=".25" stop-color="#af33e1"/>
      <stop offset=".43" stop-color="#9526ee"/>
      <stop offset=".61" stop-color="#821df7"/>
      <stop offset=".8" stop-color="#7617fd"/>
      <stop offset="1" stop-color="#7316ff"/>
    </linearGradient>
    <linearGradient id="linear-gradient-2" x1="205.86" y1="283.88" x2="296.29" y2="283.88" gradientUnits="userSpaceOnUse">
      <stop offset="0" stop-color="#e14cca"/>
      <stop offset="1" stop-color="#7316ff"/>
    </linearGradient>
    <linearGradient id="linear-gradient-3" x1="193.6" y1="235.3" x2="247.71" y2="235.3" gradientTransform="translate(231.01 -87.11) rotate(45)" gradientUnits="userSpaceOnUse">
      <stop offset="0" stop-color="#0085b2"/>
      <stop offset="1" stop-color="#33ffd9"/>
    </linearGradient>
    <linearGradient id="linear-gradient-4" x1="205.46" y1="126.02" x2="296.69" y2="126.02" gradientTransform="translate(162.65 -140.63) rotate(45)" xlink:href="#linear-gradient-2"/>
    <linearGradient id="linear-gradient-5" x1="179.27" y1="174.41" x2="248.66" y2="174.41" gradientTransform="translate(186 -100.21) rotate(45)" gradientUnits="userSpaceOnUse">
      <stop offset="0" stop-color="#33ffd9"/>
      <stop offset="1" stop-color="#0085b2"/>
    </linearGradient>
    <linearGradient id="linear-gradient-6" x1="177.89" y1="211.94" x2="211.13" y2="211.94" gradientTransform="translate(206.84 -75.47) rotate(45)" xlink:href="#linear-gradient-5"/>
    <linearGradient id="linear-gradient-7" x1="148.97" y1="183.02" x2="182.21" y2="183.02" gradientUnits="userSpaceOnUse">
      <stop offset="0" stop-color="#fffa66"/>
      <stop offset="1" stop-color="#ff9b61"/>
    </linearGradient>
    <linearGradient id="linear-gradient-8" x1="177.8" y1="193.64" x2="189.12" y2="193.64" gradientTransform="translate(190.66 -73.01) rotate(45)" xlink:href="#linear-gradient-5"/>
    <linearGradient id="linear-gradient-9" x1="166.96" y1="203.58" x2="180.67" y2="203.58" gradientTransform="translate(194.86 -63.28) rotate(45)" xlink:href="#linear-gradient-7"/>
    <linearGradient id="linear-gradient-10" x1="165.89" y1="226.45" x2="186.83" y2="226.45" xlink:href="#linear-gradient-7"/>
    <linearGradient id="linear-gradient-11" x1="161.15" y1="239.41" x2="173.87" y2="239.41" xlink:href="#linear-gradient-7"/>
    <linearGradient id="linear-gradient-12" x1="168.29" y1="163.76" x2="174.27" y2="163.76" xlink:href="#linear-gradient-7"/>
    <linearGradient id="linear-gradient-13" x1="174.27" y1="169.74" x2="180.25" y2="169.74" xlink:href="#linear-gradient-7"/>
    <linearGradient id="linear-gradient-14" x1="170.63" y1="248.28" x2="200.3" y2="248.28" gradientTransform="matrix(1,0,0,1,0,0)" xlink:href="#linear-gradient-5"/>
    <linearGradient id="linear-gradient-15" x1="197.01" y1="256.99" x2="208.65" y2="256.99" gradientTransform="translate(241.12 -68.15) rotate(45)" xlink:href="#linear-gradient-5"/>
    <linearGradient id="linear-gradient-16" x1="187.92" y1="266.09" x2="197.55" y2="266.09" gradientTransform="matrix(1,0,0,1,0,0)" xlink:href="#linear-gradient-5"/>
    <linearGradient id="linear-gradient-17" x1="195.5" y1="273.01" x2="211.97" y2="273.01" gradientTransform="matrix(1,0,0,1,0,0)" xlink:href="#linear-gradient-5"/>
    <linearGradient id="linear-gradient-18" x1="194.19" y1="137.22" x2="211.47" y2="137.22" gradientTransform="matrix(1,0,0,1,0,0)" xlink:href="#linear-gradient-5"/>
    <linearGradient id="linear-gradient-19" x1="187.68" y1="147.28" x2="197.44" y2="147.28" gradientTransform="translate(160.54 -93.02) rotate(45)" xlink:href="#linear-gradient-5"/>
    <linearGradient id="linear-gradient-20" x1="173.88" y1="157.53" x2="192.13" y2="157.53" gradientTransform="matrix(1,0,0,1,0,0)" xlink:href="#linear-gradient-5"/>
  </defs>
  <g>
    <polygon class="cls-29" points="375.42 204.75 299.92 280.25 294.3 274.63 293.83 274.15 290.14 270.47 283.15 263.48 279.46 259.79 275.42 255.74 267.97 248.3 264.29 244.62 254.53 234.87 250.85 231.19 240.7 221.03 237.01 217.35 224.42 204.75 275.42 153.76 294.43 134.75 299.92 129.25 375.42 204.75"/>
    <polygon class="cls-3" points="296.29 283.88 251.08 329.09 205.86 283.88 211.07 278.68 251.08 238.66 291.09 278.68 296.29 283.88"/>
    <polygon class="cls-21" points="267.64 283.88 236.75 314.76 205.86 283.88 209.42 280.32 236.75 252.99 264.08 280.32 267.64 283.88"/>
    <rect class="cls-28" x="201.52" y="216.17" width="38.26" height="38.26" transform="translate(-101.75 224.94) rotate(-45)"/>
    <rect class="cls-26" x="198.88" y="222.55" width="25.5" height="25.5" transform="translate(-104.4 218.56) rotate(-45)"/>
    <rect class="cls-33" x="218.82" y="93.77" width="64.51" height="64.51" transform="translate(-15.57 214.45) rotate(-45)"/>
    <rect class="cls-21" x="214.03" y="105.34" width="41.35" height="41.35" transform="translate(-20.37 202.87) rotate(-45)"/>
    <rect class="cls-22" x="189.43" y="149.88" width="49.07" height="49.07" transform="translate(-60.66 202.38) rotate(-45)"/>
    <rect class="cls-26" x="185.88" y="158.45" width="31.93" height="31.93" transform="translate(-64.21 193.81) rotate(-45)"/>
    <rect class="cls-12" x="182.76" y="200.19" width="23.5" height="23.5" transform="translate(-92.89 199.62) rotate(-45)"/>
    <rect class="cls-26" x="181.3" y="203.72" width="16.44" height="16.44" transform="translate(-94.36 196.09) rotate(-45)"/>
    <polygon class="cls-24" points="182.21 183.02 165.59 199.64 160.24 194.29 148.97 183.02 165.59 166.4 182.21 183.02"/>
    <polygon class="cls-2" points="171.56 183.02 160.27 194.31 156.63 190.68 148.97 183.02 160.27 171.73 171.56 183.02"/>
    <polygon class="cls-5" points="159.24 206.62 156.26 209.61 153.51 212.35 147.77 206.62 153.51 200.88 154.33 201.7 159.24 206.62"/>
    <rect class="cls-5" x="141.73" y="215.21" width="6.64" height="6.64" transform="translate(-112.04 166.58) rotate(-45)"/>
    <polygon class="cls-5" points="135.96 204.75 131.27 209.44 126.58 204.75 131.27 200.06 131.35 200.13 135.96 204.75"/>
    <polygon class="cls-5" points="153 195.94 144.19 204.75 135.47 196.03 135.38 195.94 144.19 187.14 153 195.94"/>
    <rect class="cls-34" x="179.46" y="189.64" width="8.01" height="8.01" transform="translate(-83.19 186.44) rotate(-45)"/>
    <rect class="cls-27" x="168.97" y="198.73" width="9.7" height="9.7" transform="translate(-93.04 182.53) rotate(-45)"/>
    <rect class="cls-2" x="168.33" y="200.25" width="6.65" height="6.65" transform="translate(-93.67 181) rotate(-45)"/>
    <polygon class="cls-5" points="169.85 216.34 162.18 224.01 154.51 216.34 158.46 212.39 162.18 208.67 169.85 216.34"/>
    <polygon class="cls-16" points="186.83 226.45 176.36 236.92 165.89 226.45 167.97 224.36 176.36 215.97 186.83 226.45"/>
    <polygon class="cls-2" points="180.01 226.45 172.95 233.51 165.89 226.45 167.29 225.04 172.95 219.38 180.01 226.45"/>
    <polygon class="cls-15" points="173.87 239.41 167.63 245.65 167.51 245.77 161.15 239.41 167.51 233.05 173.87 239.41"/>
    <polygon class="cls-5" points="161.27 233.55 158.41 236.42 158.29 236.54 155.29 233.55 155.41 233.43 158.29 230.56 161.27 233.55"/>
    <polygon class="cls-5" points="154.62 226.9 151.75 229.76 151.63 229.88 148.63 226.9 148.75 226.78 151.63 223.9 154.62 226.9"/>
    <polygon class="cls-5" points="140.37 212.64 137.37 215.63 134.37 212.64 134.5 212.52 137.37 209.64 140.37 212.64"/>
    <polygon class="cls-35" points="174.27 163.76 171.28 166.76 168.29 163.76 171.28 160.77 174.27 163.76"/>
    <polygon class="cls-36" points="180.25 169.73 177.25 172.73 174.27 169.73 177.25 166.75 180.01 169.5 180.25 169.73"/>
    <polygon class="cls-10" points="200.3 248.28 192.86 255.73 185.47 263.12 170.63 248.28 185.47 233.44 200.3 248.28"/>
    <polygon class="cls-26" points="192.13 248.28 186.73 253.67 181.38 259.03 170.63 248.28 181.38 237.52 192.13 248.28"/>
    <rect class="cls-7" x="198.72" y="252.87" width="8.23" height="8.23" transform="translate(-122.31 218.69) rotate(-45)"/>
    <polygon class="cls-18" points="197.55 266.08 192.81 270.83 192.73 270.91 187.92 266.08 192.73 261.27 197.55 266.08"/>
    <polygon class="cls-6" points="211.97 273.01 208.96 276.02 203.73 281.25 195.5 273.01 201.67 266.84 203.73 264.78 211.97 273.01"/>
    <polygon class="cls-8" points="211.47 137.22 202.83 145.86 200.63 143.66 194.23 137.26 194.19 137.22 202.83 128.58 211.47 137.22"/>
    <polygon class="cls-26" points="205.86 137.22 200.03 143.06 198.54 141.57 194.22 137.25 194.19 137.22 200.03 131.39 205.86 137.22"/>
    <rect class="cls-32" x="189.11" y="143.83" width="6.9" height="6.9" transform="translate(-47.74 179.3) rotate(-45)"/>
    <polygon class="cls-11" points="192.13 157.53 183.01 166.65 182.61 166.25 173.93 157.57 173.88 157.53 183.01 148.41 183.04 148.44 190.7 156.1 192.13 157.53"/>
    <polygon class="cls-26" points="186.83 157.53 180.36 164 180.08 163.72 173.91 157.56 173.88 157.53 180.36 151.06 180.38 151.08 185.82 156.52 186.83 157.53"/>
    <polygon class="cls-9" points="291.09 278.68 296.29 283.88 251.08 329.09 291.09 278.68"/>
    <polygon class="cls-9" points="291.56 131.15 251.08 80.41 296.69 126.02 291.56 131.15"/>
    <polygon class="cls-9" points="375.42 204.75 299.92 280.25 294.3 274.63 350.01 204.43 294.43 134.75 299.92 129.25 375.42 204.75"/>
    <polygon class="cls-1" points="171.28 166.76 168.29 163.76 171.28 160.77 174.27 163.76 171.28 166.76"/>
    <polygon class="cls-1" points="174.27 169.73 177.25 166.75 180.01 169.5 178.16 171.82 177.25 172.73 174.27 169.73"/>
    <rect class="cls-1" x="189.11" y="143.83" width="6.9" height="6.9" transform="translate(-47.74 179.3) rotate(-45)"/>
    <rect class="cls-1" x="189.42" y="262.64" width="6.71" height="6.82" transform="translate(-131.71 214.54) rotate(-45.05)"/>
    <polygon class="cls-21" points="326.41 204.75 326.33 204.83 326.33 204.84 318.96 212.2 318.96 212.2 275.42 255.74 267.97 248.3 264.29 244.62 254.53 234.87 250.85 231.19 240.7 221.03 237.01 217.35 224.42 204.75 275.42 153.76 285.92 164.26 293.7 172.04 318.32 196.66 326.41 204.75"/>
    <g>
      <path class="cls-4" d="m350.01,196.65c-4.29,0-7.78,3.49-7.78,7.78,0,1.04.21,2.03.58,2.94l-28.19,28.19v10.45l-24.47,24.47,3.68,3.68,26-26v-10.45l26.46-26.45c1.1.61,2.37.96,3.73.96,4.29,0,7.78-3.49,7.78-7.78s-3.49-7.78-7.78-7.78Zm0,10.35c-1.42,0-2.57-1.15-2.57-2.57s1.15-2.57,2.57-2.57,2.57,1.15,2.57,2.57-1.15,2.57-2.57,2.57Z"/>
      <path class="cls-4" d="m288.53,189.17c-4.29,0-7.78,3.49-7.78,7.78,0,1.26.3,2.45.84,3.5l-30.74,30.74,3.68,3.68,30.83-30.83c.96.43,2.04.69,3.17.69,4.29,0,7.78-3.49,7.78-7.78s-3.49-7.78-7.78-7.78Zm0,10.35c-1.42,0-2.57-1.15-2.57-2.57s1.15-2.57,2.57-2.57,2.57,1.15,2.57,2.57-1.15,2.57-2.57,2.57Z"/>
      <path class="cls-4" d="m298.12,236.8c-4.29,0-7.78,3.49-7.78,7.78,0,1.26.3,2.45.84,3.5l-11.71,11.71,3.68,3.69,11.8-11.8c.96.44,2.04.69,3.17.69,4.29,0,7.78-3.49,7.78-7.78s-3.49-7.78-7.78-7.78Zm0,10.35c-1.42,0-2.57-1.15-2.57-2.57s1.15-2.57,2.57-2.57,2.57,1.15,2.57,2.57-1.15,2.57-2.57,2.57Z"/>
      <path class="cls-4" d="m318.56,196.65c-.08,0-.16,0-.23,0-4.19.12-7.55,3.56-7.55,7.77,0,1.42.39,2.74,1.05,3.89l-17.63,17.62h-11.24l-18.67,18.68,3.68,3.68,17.15-17.15h11.24l19.45-19.45c.85.33,1.78.51,2.74.51.13,0,.27,0,.4,0h0c3.97-.21,7.16-3.4,7.36-7.36v-.17c0-.08,0-.16,0-.23,0-4.29-3.49-7.78-7.78-7.78Zm0,10.35c-1.42,0-2.57-1.15-2.57-2.57s1.15-2.57,2.57-2.57,2.57,1.15,2.57,2.57-1.15,2.57-2.57,2.57Z"/>
      <path class="cls-4" d="m293.7,156.47c-4.29,0-7.78,3.49-7.78,7.78h0c0,1.05.21,2.04.58,2.95l-19.48,19.48v8.54l-13.07,13.08h-7.91l-9.04,9.04,3.69,3.68,7.51-7.51h7.9l16.12-16.12v-8.54l17.76-17.76c1.1.6,2.35.95,3.7.95h0c4.29,0,7.77-3.49,7.77-7.78s-3.48-7.78-7.77-7.78Zm0,10.35c-1.42,0-2.57-1.15-2.57-2.57s1.15-2.57,2.57-2.57,2.56,1.15,2.56,2.57-1.15,2.57-2.56,2.57Z"/>
    </g>
  </g>
  <text class="cls-31" transform="translate(106.39 244.08) rotate(45)"><tspan class="cls-23" x="0" y="0">A</tspan><tspan x="38.37" y="0">G</tspan><tspan class="cls-23" x="75.02" y="0">U</tspan><tspan class="cls-17" x="111.17" y="0">A</tspan></text>
  <text class="cls-30" transform="translate(232.03 366.59) rotate(-45)"><tspan class="cls-20" x="0" y="0">In</tspan><tspan class="cls-14" x="13.82" y="0">v</tspan><tspan class="cls-19" x="21.68" y="0">ento</tspan><tspan class="cls-25" x="53.61" y="0">r</tspan><tspan class="cls-20" x="60.26" y="0">y Management S</tspan><tspan class="cls-13" x="175.1" y="0">y</tspan><tspan class="cls-20" x="183.13" y="0">stem</tspan></text>
</svg>